<svg xmlns="http://www.w3.org/2000/svg" viewBox="-28 -28 56 56" width="48" height="48">
  <polygon points="0,-24 17,-15 22,2 13,22 -7,24 -22,11 -20,-9 -7,-22" fill="#7722cc"/>
  <polygon points="0,-13 10,-8 12,2 7,12 -4,13 -12,6 -11,-5 -4,-12" fill="#9944ee" opacity="0.7"/>
  <polygon points="0,-5 5,-2 5,5 -2,7 -7,2 -6,-4" fill="#cc88ff" opacity="0.5"/>
  <line x1="0"  y1="-24" x2="0"  y2="-13" stroke="#ddaaff" stroke-width="0.8" opacity="0.7"/>
  <line x1="17" y1="-15" x2="10" y2="-8"  stroke="#ddaaff" stroke-width="0.8" opacity="0.7"/>
  <line x1="22" y1="2"   x2="12" y2="2"   stroke="#ddaaff" stroke-width="0.8" opacity="0.7"/>
  <line x1="13" y1="22"  x2="7"  y2="12"  stroke="#ddaaff" stroke-width="0.8" opacity="0.7"/>
</svg>
